# xmcd
#
# Track frame offsets:
# 150
# 19203
# 35391
# 50192
# 65079
# 78039
# 95599
# 120267
# 136444
# 158149
# 178926
# 199656
# 221334
# 235963
# 250525
# 265632
# 280911
# 297824
# 316316
# 330506
#
# Disc length: 4622 seconds
#
# Revision: 0
# Processed by: cddbd v1.5.1PL0 Copyright (c) Steve Scherf et al.
# Submitted via: Audion 3.0.2 (http://www.panic.com/audion/)
#
DISCID=1b120c14
DTITLE=Varius - Deutschländer - Die Hits Vol.1 CD2
DYEAR=1900
DGENRE=
TTITLE0=Michael Wendler - Wenn alle Strick reissen
TTITLE1=Andreas Martin - Wir leben nur einmal
TTITLE2=Matthias Carras - Hau doch ab
TTITLE3=Wolfgang Petry - Typisch Frau Typisch Mann
TTITLE4=Olaf Henning - Die Nummer eins
TTITLE5=Ronny Krappmann - Cest La Vie
TTITLE6=Jörg Bausch - Lust am Leben
TTITLE7=Klaus Densow - Ohne Dich
TTITLE8=Sandy Wagner - Süsses Gift
TTITLE9=Denise - Tu Solo Tu
TTITLE10=Oliver Hardt - Der Tänzer
TTITLE11=Bernhard Brink - Sag ihr mal danke
TTITLE12=Peter Sebastian - Der letzte Walter
TTITLE13=Oliver Thomas - Ich will
TTITLE14=Leonard - Manchmal braucht die Wahrheit zeit
TTITLE15=Michelle - Du malst mir Sterne in die Augen
TTITLE16=Andy Borg - Und hinterher da nehm ich dich in meine Arme
TTITLE17=Guido Hoffmann - Song Of Eilean
TTITLE18=Uta Bresnan - Wenn du mich berührst
TTITLE19=Franzi - Ich würd's immer wieder tun
EXTD=
EXTT0=
EXTT1=
EXTT2=
EXTT3=
EXTT4=
EXTT5=
EXTT6=
EXTT7=
EXTT8=
EXTT9=
EXTT10=
EXTT11=
EXTT12=
EXTT13=
EXTT14=
EXTT15=
EXTT16=
EXTT17=
EXTT18=
EXTT19=
PLAYORDER=
